<svg xmlns="http://www.w3.org/2000/svg" version="1.0" width="512.000000pt" height="512.000000pt" viewBox="0 0 512.000000 512.000000" preserveAspectRatio="xMidYMid meet">

<g transform="translate(0.000000,512.000000) scale(0.100000,-0.100000)" fill="#c27354" stroke="none">
<path d="M360 4755 l-335 -335 930 -930 930 -930 -930 -930 -930 -930 338 -337 337 -338 930 930 930 930 930 -930 930 -930 337 338 338 337 -930 930 -930 930 930 930 930 930 -338 337 -337 338 -930 -930 -930 -930 -928 928 c-510 510 -929 927 -932 927 -3 0 -156 -151 -340 -335z" fill="#c27354"/>
</g>
</svg>