<svg xmlns="http://www.w3.org/2000/svg" version="1.0" width="100.000000pt" height="100.000000pt" viewBox="0 0 100.000000 100.000000" preserveAspectRatio="xMidYMid meet">

<g transform="translate(0.000000,100.000000) scale(0.100000,-0.100000)" fill="#b56248" stroke="none">
<path d="M235 650 c-99 -72 -181 -136 -183 -143 -3 -14 348 -267 371 -267 11 0 15 18 19 80 3 44 7 83 11 86 3 4 79 -6 169 -21 90 -15 195 -29 234 -32 l71 -6 6 29 c4 16 9 91 13 166 8 152 5 159 -52 138 -66 -25 -177 -42 -311 -47 l-142 -6 -3 73 c-2 41 -8 75 -13 77 -6 2 -92 -55 -190 -127z m177 -47 c6 -7 24 -13 40 -13 25 0 28 -3 23 -20 -3 -11 -2 -20 4 -20 5 0 13 9 16 20 3 11 10 20 15 20 5 0 7 -7 4 -15 -4 -8 -2 -15 4 -15 5 0 12 7 16 15 3 9 18 15 36 15 27 0 30 -3 25 -20 -3 -11 -2 -20 4 -20 5 0 13 9 16 20 10 32 27 24 20 -10 -4 -18 -2 -30 3 -30 6 0 13 13 17 30 8 36 25 50 25 21 0 -12 5 -21 10 -21 6 0 10 7 10 15 0 9 12 20 26 25 35 14 44 12 38 -5 -9 -22 9 -18 24 5 16 26 35 26 27 0 -9 -28 2 -25 30 8 22 25 24 25 18 5 -3 -13 -1 -23 5 -23 5 0 13 11 16 25 11 43 26 27 26 -27 0 -94 -11 -157 -26 -151 -20 7 -17 -7 4 -23 16 -12 16 -13 -1 -19 -9 -4 -38 -4 -63 0 -34 5 -48 12 -51 26 -6 23 -23 25 -23 3 0 -14 -8 -16 -57 -10 -81 10 -103 16 -103 32 0 8 -4 14 -10 14 -5 0 -10 -6 -10 -14 0 -21 -38 -8 -45 15 -4 10 -11 19 -17 19 -5 0 -7 -7 -4 -16 5 -14 0 -15 -38 -10 -51 8 -52 6 -62 -89 -6 -59 -8 -63 -26 -54 -13 7 -17 16 -13 30 7 22 -5 25 -24 7 -10 -11 -11 -9 -5 6 6 16 4 18 -10 13 -12 -5 -47 15 -117 64 -80 57 -97 74 -88 85 13 16 29 9 29 -12 0 -8 5 -14 11 -14 7 0 8 11 4 29 -7 35 13 54 29 27 6 -10 17 -25 24 -34 14 -18 14 -11 -3 53 -4 13 1 24 15 33 19 12 22 10 36 -23 8 -20 19 -33 24 -30 5 3 2 21 -6 41 -17 40 -11 58 17 49 15 -5 19 -1 19 14 0 26 18 27 36 4 7 -10 16 -15 20 -11 4 4 1 14 -6 23 -11 13 -10 19 6 36 19 21 19 21 22 -32 2 -29 8 -59 14 -66z" fill="#b56248"/>
<path d="M820 460 c0 -5 5 -10 10 -10 6 0 10 5 10 10 0 6 -4 10 -10 10 -5 0 -10 -4 -10 -10z" fill="#b56248"/>
<path d="M255 440 c-3 -5 -1 -10 4 -10 6 0 11 5 11 10 0 6 -2 10 -4 10 -3 0 -8 -4 -11 -10z" fill="#b56248"/>
<path d="M330 410 c0 -5 5 -10 10 -10 6 0 10 5 10 10 0 6 -4 10 -10 10 -5 0 -10 -4 -10 -10z" fill="#b56248"/>
</g>
</svg>